HIERARCHY
ROOT Hips
{
	OFFSET 0.000000 0.000000 0.000000
	CHANNELS 6 Xposition Yposition Zposition Zrotation Yrotation Xrotation 
	JOINT LHipJoint
	{
		OFFSET 0.000000 0.000000 0.000000
		CHANNELS 3 Zrotation Yrotation Xrotation
		JOINT LeftUpLeg
		{
			OFFSET 1.363060 -1.794630 0.839290
			CHANNELS 3 Zrotation Yrotation Xrotation
			JOINT LeftLeg
			{
				OFFSET 2.448110 -6.726130 0.000000
				CHANNELS 3 Zrotation Yrotation Xrotation
				JOINT LeftFoot
				{
					OFFSET 2.562200 -7.039590 0.000000
					CHANNELS 3 Zrotation Yrotation Xrotation
					JOINT LeftToeBase
					{
						OFFSET 0.157640 -0.433110 2.322550
						CHANNELS 3 Zrotation Yrotation Xrotation
						End Site
						{
							OFFSET 0.000000 0.000000 0.000000
						}
					}
				}
			}
		}
	}
	JOINT RHipJoint
	{
		OFFSET 0.000000 0.000000 0.000000
		CHANNELS 3 Zrotation Yrotation Xrotation
		JOINT RightUpLeg
		{
			OFFSET -1.305520 -1.794630 0.839290
			CHANNELS 3 Zrotation Yrotation Xrotation
			JOINT RightLeg
			{
				OFFSET -2.542530 -6.985550 0.000000
				CHANNELS 3 Zrotation Yrotation Xrotation
				JOINT RightFoot
				{
					OFFSET -2.568260 -7.056230 0.000000
					CHANNELS 3 Zrotation Yrotation Xrotation
					JOINT RightToeBase
					{
						OFFSET -0.164730 -0.452590 2.363150
						CHANNELS 3 Zrotation Yrotation Xrotation
						End Site
						{
							OFFSET 0.000000 0.000000 0.000000
						}
					}
				}
			}
		}
	}
	JOINT LowerBack
	{
		OFFSET 0.000000 0.000000 0.000000
		CHANNELS 3 Zrotation Yrotation Xrotation
		JOINT Spine
		{
			OFFSET 0.028270 2.035590 -0.193380
			CHANNELS 3 Zrotation Yrotation Xrotation
			JOINT Spine1
			{
				OFFSET 0.056720 2.048850 -0.042750
				CHANNELS 3 Zrotation Yrotation Xrotation
				JOINT Neck
				{
					OFFSET 0.000000 0.000000 0.000000
					CHANNELS 3 Zrotation Yrotation Xrotation
					JOINT Neck1
					{
						OFFSET -0.054170 1.746240 0.172020
						CHANNELS 3 Zrotation Yrotation Xrotation
						JOINT Head
						{
							OFFSET 0.104070 1.761360 -0.123970
							CHANNELS 3 Zrotation Yrotation Xrotation
							End Site
							{
								OFFSET 0.000000 0.000000 0.000000
							}
						}
					}
				}
				JOINT LeftShoulder
				{
					OFFSET 0.000000 0.000000 0.000000
					CHANNELS 3 Zrotation Yrotation Xrotation
					JOINT LeftArm
					{
						OFFSET 3.362410 1.200890 -0.311210
						CHANNELS 3 Zrotation Yrotation Xrotation
						JOINT LeftForeArm
						{
							OFFSET 4.983000 -0.000000 -0.000000
							CHANNELS 3 Zrotation Yrotation Xrotation
							JOINT LeftHand
							{
								OFFSET 3.483560 -0.000000 -0.000000
								CHANNELS 3 Zrotation Yrotation Xrotation
								JOINT LeftFingerBase
								{
									OFFSET 0.000000 0.000000 0.000000
									CHANNELS 3 Zrotation Yrotation Xrotation
									JOINT LeftHandIndex1
									{
										OFFSET 0.715260 -0.000000 -0.000000
										CHANNELS 3 Zrotation Yrotation Xrotation
										End Site
										{
											OFFSET 0.000000 0.000000 0.000000
										}
									}
								}
								JOINT LThumb
								{
									OFFSET 0.000000 0.000000 0.000000
									CHANNELS 3 Zrotation Yrotation Xrotation
									End Site
									{
										OFFSET 0.000000 0.000000 0.000000
									}
								}
							}
						}
					}
				}
				JOINT RightShoulder
				{
					OFFSET 0.000000 0.000000 0.000000
					CHANNELS 3 Zrotation Yrotation Xrotation
					JOINT RightArm
					{
						OFFSET -3.136600 1.374050 -0.404650
						CHANNELS 3 Zrotation Yrotation Xrotation
						JOINT RightForeArm
						{
							OFFSET -5.241900 -0.000000 -0.000000
							CHANNELS 3 Zrotation Yrotation Xrotation
							JOINT RightHand
							{
								OFFSET -3.444170 -0.000000 -0.000000
								CHANNELS 3 Zrotation Yrotation Xrotation
								JOINT RightFingerBase
								{
									OFFSET 0.000000 0.000000 0.000000
									CHANNELS 3 Zrotation Yrotation Xrotation
									JOINT RightHandIndex1
									{
										OFFSET -0.622530 -0.000000 -0.000000
										CHANNELS 3 Zrotation Yrotation Xrotation
										End Site
										{
											OFFSET 0.000000 0.000000 0.000000
										}
									}
								}
								JOINT RThumb
								{
									OFFSET 0.000000 0.000000 0.000000
									CHANNELS 3 Zrotation Yrotation Xrotation
									End Site
									{
										OFFSET 0.000000 0.000000 0.000000
									}
								}
							}
						}
					}
				}
			}
		}
	}
}
MOTION
Frames: 11
Frame Time: 0.008333
25.560811 16.390541 15.120420 136.846113 -72.615069 -126.372079 1.275254 -19.613422 -18.549746 -4.643602 4.158686 -4.789214 -3.750205 4.096137 5.547550 -7.470085 4.738857 7.108278 -1.566207 5.072830 -9.475705 -8.267942 11.856809 -17.748516 23.508184 -8.759739 -8.292588 2.867045 -17.087438 35.828417 -2.177460 -9.761294 -2.824249 -6.362644 -4.806939 -28.687316 1.367558 -0.153023 35.905314 -0.495180 -1.094390 -8.904376 -4.459705 0.426259 -3.183931 -7.664541 -1.750016 -10.701872 -5.826434 -1.822930 10.911541 26.438716 -30.094613 8.672960 15.979849 -0.791069 4.076885 -79.538857 -38.137230 17.086977 146.318472 -74.855612 -146.084756 -10.020700 15.657511 -3.491753 -0.000001 -0.000002 -0.000000 -0.000000 0.000000 0.000000 0.000000 0.000000 0.000000 -22.542459 3.501710 0.788194 70.182480 26.591023 20.017681 -104.434632 69.667772 -77.809483 1.843272 0.269871 0.070499 0.000000 0.000002 -0.000000 0.000000 -0.000000 0.000000 0.000000 0.000000 -0.000000 
25.756757 16.383333 15.105556 137.462826 -73.003592 -127.104232 1.018397 -19.486209 -18.589418 -3.807689 4.051697 -4.053091 -4.138078 4.925683 7.012576 -6.220548 5.046499 6.878944 -1.041870 3.489285 -8.451892 -8.218653 11.995959 -17.829270 24.082512 -8.825534 -8.090220 3.480720 -17.069917 34.098139 -5.361648 -10.462808 -3.026814 -6.419822 -4.139323 -27.564790 1.530515 -0.128365 36.080638 -0.426583 -1.299357 -8.933152 -4.335847 0.150534 -3.425124 -7.500084 -1.793281 -10.468475 -5.576110 -1.903012 10.944881 26.293650 -29.916211 8.844945 16.150997 -0.878638 4.114180 -78.998822 -39.637798 16.260794 146.699044 -75.309639 -146.932966 -9.470586 15.779399 -3.448908 -0.000001 -0.000002 -0.000000 0.000000 0.000000 -0.000000 0.000000 0.000000 0.000000 -22.430927 3.621920 0.533322 70.306451 25.597148 18.154128 -101.829224 71.665552 -73.611058 2.071946 0.084467 0.045077 0.000000 0.000002 -0.000000 -0.000000 0.000000 -0.000000 -0.000000 -0.000000 -0.000000 
25.948949 16.371922 15.086336 137.770033 -73.487275 -127.579365 0.680952 -19.258694 -18.614539 -3.004991 4.235471 -3.438931 -4.420227 5.428153 8.593366 -5.553436 5.406714 6.820134 -0.455276 1.530075 -8.527293 -8.111153 11.953925 -17.879103 24.803788 -9.714492 -8.140560 3.480698 -16.858123 32.542446 -6.081593 -10.668531 -3.560825 -6.767507 -3.763721 -27.929892 1.701347 -0.159870 36.220789 -0.369888 -1.403757 -8.943690 -4.282111 -0.061078 -2.760430 -7.239154 -2.053887 -11.059706 -5.337340 -2.137069 11.004345 25.700526 -29.962827 9.333135 16.321941 -0.636421 4.170499 -78.376356 -42.079575 15.059599 148.657884 -76.065954 -150.030314 -8.483128 16.551996 -3.492262 -0.000001 -0.000002 -0.000000 0.000000 0.000000 0.000000 0.000000 0.000000 0.000000 -22.268789 2.834538 -0.252695 70.542948 25.119628 14.732373 -96.917475 75.586819 -67.047698 0.828090 0.332509 0.061824 0.000000 0.000002 -0.000000 0.000000 0.000000 0.000000 -0.000000 -0.000000 0.000000 
26.135886 16.363664 15.084685 139.778596 -73.613171 -129.644801 0.683015 -19.206225 -18.323920 -2.299381 4.955524 -3.226508 -4.752615 5.362737 10.327426 -3.730338 6.209706 6.684477 -0.193665 0.682464 -7.368226 -8.142846 12.298844 -17.949499 25.615979 -10.264941 -8.178935 3.963081 -16.224149 30.990549 -6.176490 -11.639561 -4.269556 -8.517557 -1.355418 -28.732989 1.914085 -0.002681 36.322952 -0.376984 -1.247490 -8.949633 -4.597039 -0.082071 -2.563635 -6.768984 -2.211414 -11.202456 -5.118093 -2.306853 11.115925 25.174969 -29.874727 10.139374 16.706251 -0.940427 3.842017 -77.696781 -43.683557 13.723045 150.537478 -76.826141 -152.769157 -5.958879 16.911788 -3.220000 -0.000001 -0.000002 -0.000000 0.000000 0.000000 -0.000000 -0.000000 -0.000000 0.000000 -21.840929 2.407124 -0.781850 70.571703 24.195600 11.336338 -91.207187 79.157201 -63.239463 -1.153863 -0.020689 -0.020254 0.000000 0.000002 -0.000000 -0.000000 0.000000 -0.000000 0.000000 0.000000 0.000000 
26.309009 16.341592 15.054955 139.933994 -74.103645 -129.989347 0.740429 -19.025046 -18.166551 -1.932157 5.320490 -3.407262 -5.161373 5.617487 13.272927 -2.312595 7.031163 5.652111 -0.103439 0.357895 -8.679731 -8.240581 12.160992 -17.871657 26.668924 -11.365986 -8.577931 3.758589 -15.761396 29.832083 -6.636598 -11.543338 -4.731827 -8.932298 -0.285874 -28.078280 2.027966 0.114844 36.260901 -0.287362 -1.568488 -8.914841 -4.109689 -0.411462 -2.222234 -6.868582 -2.415809 -11.409052 -4.831683 -2.456517 11.134884 24.360901 -29.835859 10.941627 16.477736 -0.807392 3.993133 -76.981856 -45.740703 12.789393 151.664120 -77.448199 -154.450417 -5.650921 17.082411 -3.210684 -0.000001 -0.000002 -0.000000 -0.000000 -0.000000 -0.000000 -0.000000 -0.000000 0.000000 -21.951626 2.337200 -1.222052 70.792933 23.170154 9.386773 -87.576027 80.982713 -61.588011 -2.021246 -0.154723 -0.049709 0.000000 0.000002 -0.000000 -0.000000 0.000000 -0.000000 -0.000000 -0.000000 -0.000000 
26.484384 16.322673 15.038138 140.790672 -74.437211 -131.084497 0.509355 -18.816489 -18.162701 -1.241153 5.988721 -4.409364 -5.285547 7.692391 18.384334 -0.657699 7.149089 3.628887 -0.560409 1.781078 -10.327644 -8.254950 12.002817 -17.971927 27.515902 -12.143486 -8.987045 3.440217 -15.485328 29.411266 -6.775764 -11.020324 -4.888722 -8.284776 -0.461134 -26.566128 2.095510 0.213935 36.363205 -0.235702 -1.744429 -8.868761 -3.719842 -0.573641 -1.434909 -6.928436 -2.611516 -12.036576 -4.421360 -2.606235 11.017321 23.565305 -29.630313 11.587663 16.401942 -0.642487 3.993437 -76.470201 -48.322555 11.965041 152.938999 -78.024692 -156.403704 -5.062086 17.432211 -3.194876 -0.000001 -0.000002 -0.000000 -0.000000 0.000000 -0.000000 0.000000 0.000000 0.000000 -22.049474 1.852387 -0.955553 71.136961 22.865780 11.561005 -92.060449 78.081436 -69.011268 -1.648215 -2.247468 -0.308164 0.000000 0.000002 -0.000000 -0.000000 0.000000 -0.000000 0.000000 0.000000 0.000000 
26.657508 16.311562 15.034985 142.942145 -74.632142 -133.295489 0.040461 -18.541196 -17.980006 -0.185882 6.974509 -5.617233 -4.726300 9.919462 23.267619 0.478758 7.252039 2.539488 -1.221832 3.655334 -12.215132 -8.207848 12.076222 -18.093396 28.279041 -12.323264 -9.333922 3.809277 -14.728260 29.003304 -7.833584 -11.535316 -4.913546 -8.891408 0.869992 -26.104136 2.300363 0.294578 36.392117 -0.224661 -1.738109 -8.841425 -3.533716 -0.587259 -1.217619 -6.947262 -2.667102 -12.140517 -4.033200 -2.664986 10.931773 23.509005 -29.490753 12.186595 16.326175 -0.916730 3.896184 -75.794552 -50.276390 10.888304 154.484024 -78.688624 -158.804135 -5.042105 17.922981 -3.285715 -0.000001 -0.000002 -0.000000 0.000000 0.000000 0.000000 -0.000000 0.000000 -0.000000 -22.173949 1.370143 -1.141468 71.680976 22.176801 9.970789 -89.429075 79.518280 -64.760710 -2.862483 -0.835402 -0.139712 0.000000 0.000002 -0.000000 0.000000 0.000000 -0.000000 -0.000000 -0.000000 -0.000000 
26.820721 16.317868 15.014940 143.901566 -75.116778 -133.954210 -0.786429 -18.347587 -17.636052 1.111743 7.507450 -7.131191 -3.726345 11.810688 27.816223 1.850850 7.628757 2.492873 -2.115948 6.362759 -11.936197 -8.040033 12.046338 -17.968331 28.953169 -12.853362 -10.433910 3.866671 -14.080616 28.561838 -4.692909 -11.910319 -5.857528 -10.484247 2.886429 -27.222988 2.593085 0.340021 36.091278 -0.213635 -1.884161 -8.902289 -3.456295 -0.747108 -1.251136 -6.830039 -2.675284 -12.043252 -3.722157 -2.709254 10.920214 23.357665 -29.151480 12.056291 16.101758 -1.490224 3.724261 -74.780590 -51.899848 10.014601 155.056728 -79.337531 -159.131657 -5.348784 17.539869 -3.256841 -0.000001 -0.000002 -0.000000 -0.000000 -0.000000 -0.000000 -0.000000 0.000000 0.000000 -21.662576 1.323949 -0.567931 71.887796 21.288954 12.557659 -93.523505 76.187643 -72.003830 -2.081566 -2.483538 -0.334949 0.000000 0.000002 -0.000000 -0.000000 0.000000 -0.000000 -0.000000 -0.000000 -0.000000 
26.983183 16.333934 14.994054 145.712909 -75.268338 -135.444596 -1.242212 -18.154760 -17.197360 1.952500 8.137403 -8.394805 -2.715425 13.380175 31.787567 2.201239 8.662513 2.462484 -2.207134 6.474031 -12.801507 -7.662215 12.183283 -18.014826 29.195511 -12.858597 -11.033279 4.315255 -13.360118 27.997231 -4.680863 -12.575994 -6.024216 -10.932641 3.651605 -27.235056 2.674299 0.533916 35.880087 -0.221805 -1.796867 -8.996351 -3.263380 -0.691656 -1.510388 -6.873807 -2.677879 -11.781603 -3.460251 -2.709716 11.023656 23.857245 -28.837262 11.855182 15.779459 -2.406070 3.427583 -73.864703 -53.066300 9.402143 155.018964 -79.789297 -158.846270 -4.395281 17.133011 -3.044085 -0.000001 -0.000002 -0.000000 -0.000000 -0.000000 0.000000 0.000000 0.000000 0.000000 -21.357244 0.998845 -0.291811 72.374253 20.192522 13.250288 -94.688142 75.066142 -74.236435 -2.593253 -2.510477 -0.334607 0.000000 0.000002 -0.000000 0.000000 -0.000000 -0.000000 0.000000 0.000000 -0.000000 
27.142643 16.349550 14.978018 147.701626 -75.245859 -137.392687 -1.347250 -17.935194 -17.049299 2.126169 9.219293 -8.881324 -0.963573 15.446062 35.193129 1.815347 8.478932 2.235684 -2.781464 8.194684 -12.603371 -7.393738 12.203925 -18.106167 29.491505 -13.116869 -11.296351 4.393742 -13.265116 27.201346 -8.682778 -11.932450 -4.857749 -7.125627 0.958311 -21.057185 2.698513 0.803253 35.905088 -0.267685 -1.467945 -9.060362 -3.356149 -0.356018 -1.649979 -6.699364 -2.713085 -11.636623 -3.260410 -2.754551 11.349615 24.561353 -28.556505 11.028546 15.996379 -3.595569 3.226204 -73.535091 -54.231972 9.109326 156.013528 -79.948430 -160.169244 -4.452311 17.408684 -3.103139 -0.000001 -0.000002 -0.000000 0.000000 0.000000 0.000000 -0.000000 0.000000 0.000000 -20.924217 -0.002653 0.358377 73.076554 19.307175 14.498553 -97.622476 73.276116 -80.385967 -1.247072 -3.165821 -0.429107 0.000000 0.000002 -0.000000 0.000000 0.000000 0.000000 0.000000 -0.000000 0.000000 
27.293243 16.363964 14.964009 149.961294 -75.412800 -139.542781 -1.619987 -17.517929 -17.013113 2.428478 10.584987 -9.380774 2.314071 17.944837 38.439850 0.408859 6.949829 2.846676 -3.783688 11.644209 -11.024642 -7.187924 12.198397 -18.005045 30.175560 -13.820883 -12.057257 4.241906 -13.104025 26.466914 -8.487849 -11.228427 -4.771835 -6.316980 0.435740 -19.503287 3.006484 1.036349 35.785322 -0.280442 -1.439129 -9.125812 -3.434821 -0.332043 -1.941770 -6.508994 -2.789283 -11.366665 -3.089290 -2.817713 11.621381 24.168370 -28.180001 11.104245 16.079371 -4.385915 3.264079 -73.146696 -55.293120 9.059056 155.761303 -80.065889 -159.117414 -5.116835 16.692476 -3.061214 -0.000001 -0.000002 -0.000000 0.000000 0.000000 0.000000 0.000000 0.000000 -0.000000 -20.492253 -0.358884 0.711844 73.715372 18.095429 14.138998 -100.883111 73.048335 -89.927004 -0.503073 -4.231641 -0.584032 0.000000 0.000002 -0.000000 -0.000000 -0.000000 0.000000 -0.000000 0.000000 -0.000000 
